<?xml version="1.0" standalone="no"?>
<!DOCTYPE svg PUBLIC "-//W3C//DTD SVG 20010904//EN"
 "http://www.w3.org/TR/2001/REC-SVG-20010904/DTD/svg10.dtd">
<svg version="1.0" xmlns="http://www.w3.org/2000/svg"
 width="700.000000pt" height="700.000000pt" viewBox="0 0 700.000000 700.000000"
 preserveAspectRatio="xMidYMid meet">
<metadata>
Created by potrace 1.14, written by Peter Selinger 2001-2017
</metadata>
<g transform="translate(0.000000,700.000000) scale(0.100000,-0.100000)"
fill="#000000" stroke="none">
<path d="M0 3500 l0 -3500 3500 0 3500 0 0 3500 0 3500 -3500 0 -3500 0 0
-3500z m5065 1560 l1560 -1560 -1560 -1560 -1560 -1560 -1563 1562 -1562 1563
1557 1557 c857 857 1560 1558 1563 1558 3 0 707 -702 1565 -1560z"/>
<path d="M3095 5220 l-410 -410 408 -407 407 -408 405 405 c223 223 405 409
405 415 0 5 -181 191 -403 412 l-402 403 -410 -410z"/>
<path d="M1780 3905 l-405 -405 408 -408 407 -407 407 407 408 408 -405 405
c-223 223 -407 405 -410 405 -3 0 -187 -182 -410 -405z"/>
<path d="M4400 3905 l-405 -405 408 -407 407 -408 405 405 c223 223 405 409
405 415 0 13 -792 805 -805 805 -6 0 -192 -182 -415 -405z"/>
<path d="M3090 2595 l-405 -405 408 -408 407 -407 407 407 408 408 -405 405
c-223 223 -407 405 -410 405 -3 0 -187 -182 -410 -405z"/>
</g>
</svg>
